# xmcd
#
# Track frame offsets: 
#        150
#        15567
#        35688
#        47589
#        73382
#        86098
#        111129
#        123676
#        143921
#        158896
#        177094
#
# Disc length: 2599 seconds
#
# Revision: 1
# Processed by: cddbd v1.5.2PL0 Copyright (c) Steve Scherf et al.
# Submitted via: ExactAudioCopyFreeDBPlugin 1.0
#
DISCID=9a0a250b
DTITLE=Trampled by Turtles - Stars and Satellites
DYEAR=2012
DGENRE=Country
TTITLE0=Midnight on the Interstate
TTITLE1=Alone
TTITLE2=Walt Whitman
TTITLE3=High Water
TTITLE4=Risk
TTITLE5=Widower's Heart
TTITLE6=Sorry
TTITLE7=Beautiful
TTITLE8=Don't Look Down
TTITLE9=Keys to Paradise
TTITLE10=The Calm and the Crying Wind
EXTD=
EXTT0=
EXTT1=
EXTT2=
EXTT3=
EXTT4=
EXTT5=
EXTT6=
EXTT7=
EXTT8=
EXTT9=
EXTT10=
PLAYORDER=
